<svg width="100%" height="100%" viewBox="0 0 675 512" fill="none" xmlns="http://www.w3.org/2000/svg">
<path d="M250.485 511.319L273.601 497.687C273.601 497.687 395.669 148.524 442.494 67.0485C436.995 54.0201 424.019 23.9244 416.101 7.76918C403.432 -6.30155 394.107 1.90637 391.027 7.76918L319.766 169.322C267.64 174.099 159.165 183.914 142.273 184.956C126.965 191.731 130.616 202.545 134.355 207.105L268.96 325.012C258.842 368.657 237.288 462.202 232.01 487.216C225.147 511.71 241.467 513.49 250.485 511.319Z" fill="#FFC850"/>
<path d="M487.362 169.323L442.494 67.7014C352.757 173.492 292.053 398.841 272.918 498.292L404.884 422.075C446.453 446.612 534.605 498.552 554.664 510.017C575.779 516.792 577.978 501.549 576.438 493.08L538.168 325.665C572.479 295.699 646.116 231.339 666.175 213.62C684.122 195.901 670.354 186.477 662.876 184.958L487.362 169.323Z" fill="#FFDC64"/>
<path d="M86.9291 347.811C109.195 343.803 119.939 333.589 132.828 322.152C134.969 319.928 136.901 317.395 138.639 314.695C152.375 350.572 185.32 362.478 195.145 365.804C169.903 382.221 159.776 414.41 158.027 422.405C154.994 430.396 152.025 425.047 151.18 422.786C149.928 416.009 149.924 416.83 144.858 402.443C131.153 369.057 100.505 357.036 86.8943 355.198C75.1417 352.48 82.0091 347.789 86.9291 347.811Z" fill="#E89528"/>
<path d="M5.3029 268.632C22.4891 265.397 30.7817 257.153 40.7299 247.921C42.3828 246.126 43.8738 244.082 45.2149 241.902C55.8171 270.862 81.246 280.472 88.8291 283.157C69.3461 296.408 61.5296 322.39 60.1797 328.844C57.8392 335.294 55.547 330.977 54.8948 329.152C53.9287 323.681 53.9257 324.343 50.0152 312.731C39.437 285.782 15.7816 276.079 5.2761 274.596C-3.79518 272.401 1.5054 268.615 5.3029 268.632Z" fill="#E8C842"/>
<path d="M5.3029 429.32C22.4891 426.085 30.7817 417.84 40.7299 408.609C42.3828 406.814 43.8738 404.769 45.2149 402.59C55.8171 431.549 81.246 441.16 88.8291 443.844C69.3461 457.096 61.5296 483.078 60.1797 489.532C57.8392 495.981 55.547 491.664 54.8948 489.839C53.9287 484.369 53.9257 485.031 50.0152 473.418C39.437 446.47 15.7816 436.766 5.2761 435.283C-3.79518 433.089 1.5054 429.303 5.3029 429.32Z" fill="#EAD786"/>
<path d="M223.426 354.109C201.333 358.206 189.649 369.121 179.24 380.592C177.116 383.313 175.005 385.674 173.292 388.377C159.484 352.622 125.283 339.974 115.511 336.697C142.49 319.956 150.775 287.942 152.474 279.953C155.448 271.963 158.422 277.289 159.272 279.543C160.546 286.303 160.546 285.484 165.645 299.823C179.41 333.091 209.901 344.959 223.426 346.735C235.109 349.398 228.311 354.109 223.426 354.109Z" fill="#F4A32C"/>
<path d="M110.62 273.478C93.4365 276.756 84.3492 285.488 76.2533 294.665C74.6011 296.841 72.9593 298.73 71.6271 300.893C60.8876 272.289 34.2868 262.171 26.6865 259.548C47.6698 246.156 54.1135 220.544 55.4353 214.153C57.7484 207.762 60.0615 212.023 60.7224 213.825C61.7137 219.233 61.7137 218.578 65.6791 230.05C76.3855 256.664 100.1 266.158 110.62 267.579C119.707 269.709 114.42 273.478 110.62 273.478Z" fill="#F4D44E"/>
<path d="M110.62 434.789C93.4365 438.114 84.3492 446.974 76.2533 456.287C74.6011 458.495 72.9593 460.412 71.6271 462.606C60.8876 433.581 34.2868 423.314 26.6865 420.654C47.6698 407.064 54.1135 381.076 55.4353 374.591C57.7484 368.105 60.0615 372.429 60.7224 374.258C61.7137 379.746 61.7137 379.081 65.6791 390.721C76.3855 417.727 100.1 427.361 110.62 428.802C119.707 430.964 114.42 434.789 110.62 434.789Z" fill="#F7E7A1"/>
</svg>
