<svg width="974" height="97" viewBox="0 0 974 97" fill="none" xmlns="http://www.w3.org/2000/svg">
<path opacity="0.2" d="M240.874 20.4277C242.6 22.0489 240.879 47.8043 240.88 59.1353L240.886 95.7979L0.613401 95.7979C0.613401 95.7979 0.611443 53.0611 0.612424 16.1608C0.613406 -20.7395 106.823 17.4602 136.578 15.7042C166.334 13.9483 181.525 -4.50965 201.763 12.9952C222 30.5 239.148 18.8065 240.874 20.4277Z" fill="url(#paint0_linear)"/>
<path opacity="0.2" d="M5.31206 95.8163L240.888 95.7909L240.879 20.3473C171.68 24.035 186.758 -5.44811 118.54 2.43073C81.6793 6.68796 17.2325 17.2559 5.30279 9.84332C-6.62691 2.43073 5.31206 95.8163 5.31206 95.8163Z" fill="url(#paint1_linear)"/>
<path opacity="0.2" d="M240.897 20.4154C240.6 21.0493 240.894 47.7921 240.893 59.123L240.888 95.7857L419.999 95.7857C419.999 95.7857 420.999 23.0005 419.999 15.692C418.999 8.3835 342.853 17.4479 320.222 15.692C297.591 13.936 284.601 1.83094 270.644 12.9829C256.688 24.1349 241.194 19.7815 240.897 20.4154Z" fill="url(#paint2_linear)"/>
<path opacity="0.2" d="M420.081 95.7784L240.887 95.7783L240.887 20C293.523 23.6876 282.06 -5.4607 333.949 2.41814C361.986 6.67537 420.081 17.1616 420.081 9.83073C420.081 2.4999 420.081 95.7784 420.081 95.7784Z" fill="url(#paint3_linear)"/>
<path opacity="0.2" d="M648.821 20.4149C649.2 21.0488 648.825 47.7916 648.827 59.1225L648.832 95.7852L420.205 95.7852C420.205 95.7852 419.909 11.883 420.205 15.6915C420.5 19.5 518.678 17.4475 547.566 15.6915C576.454 13.9355 593.035 1.83045 610.85 12.9824C628.665 24.1344 648.442 19.781 648.821 20.4149Z" fill="url(#paint4_linear)"/>
<path opacity="0.2" d="M420.01 95.7286L648.744 95.7285L648.744 19.9502C581.557 23.6378 596.189 -5.51051 529.954 2.36833C494.166 6.62557 420.01 17.1117 420.01 9.78092C420.01 2.45009 420.01 95.7286 420.01 95.7286Z" fill="url(#paint5_linear)"/>
<path opacity="0.2" d="M649.124 20.4149C648.862 21.0488 649.121 47.7916 649.12 59.1225L649.116 95.7852L806.921 95.7852L806.921 15.6915C806.921 21.3825 738.952 17.4475 719.013 15.6915C699.073 13.9355 687.629 1.83045 675.332 12.9824C663.036 24.1344 649.385 19.781 649.124 20.4149Z" fill="url(#paint6_linear)"/>
<path opacity="0.2" d="M806.993 95.7784L649.114 95.7783L649.114 20C695.489 23.6876 685.39 -5.4607 731.106 2.41814C755.809 6.67537 806.993 17.1616 806.993 9.83073C806.993 2.4999 806.993 95.7784 806.993 95.7784Z" fill="url(#paint7_linear)"/>
<path opacity="0.2" d="M973.795 20.7567C974.071 21.3906 973.798 48.1334 973.799 59.4643L973.803 96.127L807.01 96.127C807.01 96.127 807.009 24.0666 807.01 16.0333C807.01 8 878.85 17.7893 899.925 16.0333C921 14.2773 933.097 2.17225 946.094 13.3242C959.09 24.4762 973.519 20.1228 973.795 20.7567Z" fill="url(#paint8_linear)"/>
<path opacity="0.2" d="M807.007 95.7784L973.879 95.7783L973.879 20C924.862 23.6876 935.537 -5.4607 887.216 2.41814C861.107 6.67537 807.007 17.1616 807.007 9.83073C807.007 2.4999 807.007 95.7784 807.007 95.7784Z" fill="url(#paint9_linear)"/>
<defs>
<linearGradient id="paint0_linear" x1="455.753" y1="87.331" x2="80.0077" y2="234.973" gradientUnits="userSpaceOnUse">
<stop stop-color="#F6934B"/>
<stop offset="1" stop-color="white"/>
</linearGradient>
<linearGradient id="paint1_linear" x1="485.042" y1="-42.8133" x2="32.8658" y2="206.971" gradientUnits="userSpaceOnUse">
<stop offset="0.327471" stop-color="#F6934B"/>
<stop offset="0.855678" stop-color="#FFE1CB"/>
<stop offset="1" stop-color="white"/>
</linearGradient>
<linearGradient id="paint2_linear" x1="77.4651" y1="87.3188" x2="380.322" y2="177.828" gradientUnits="userSpaceOnUse">
<stop stop-color="#F6934B"/>
<stop offset="1" stop-color="white"/>
</linearGradient>
<linearGradient id="paint3_linear" x1="55.1695" y1="-42.826" x2="436.705" y2="117.487" gradientUnits="userSpaceOnUse">
<stop offset="0.327471" stop-color="#F6934B"/>
<stop offset="0.855678" stop-color="#FFE1CB"/>
<stop offset="1" stop-color="white"/>
</linearGradient>
<linearGradient id="paint4_linear" x1="857.435" y1="87.3183" x2="489.82" y2="227.553" gradientUnits="userSpaceOnUse">
<stop stop-color="#F6934B"/>
<stop offset="1" stop-color="white"/>
</linearGradient>
<linearGradient id="paint5_linear" x1="885.805" y1="-42.8758" x2="440.814" y2="195.791" gradientUnits="userSpaceOnUse">
<stop offset="0.327471" stop-color="#F6934B"/>
<stop offset="0.855678" stop-color="#FFE1CB"/>
<stop offset="1" stop-color="white"/>
</linearGradient>
<linearGradient id="paint6_linear" x1="505.132" y1="87.3183" x2="776.95" y2="158.889" gradientUnits="userSpaceOnUse">
<stop stop-color="#F6934B"/>
<stop offset="1" stop-color="white"/>
</linearGradient>
<linearGradient id="paint7_linear" x1="485.488" y1="-42.826" x2="833.319" y2="85.9402" gradientUnits="userSpaceOnUse">
<stop offset="0.327471" stop-color="#F6934B"/>
<stop offset="0.855678" stop-color="#FFE1CB"/>
<stop offset="1" stop-color="white"/>
</linearGradient>
<linearGradient id="paint8_linear" x1="1125.99" y1="87.6601" x2="840.854" y2="167.013" gradientUnits="userSpaceOnUse">
<stop stop-color="#F6934B"/>
<stop offset="1" stop-color="white"/>
</linearGradient>
<linearGradient id="paint9_linear" x1="1146.82" y1="-42.826" x2="784.301" y2="99.0237" gradientUnits="userSpaceOnUse">
<stop offset="0.327471" stop-color="#F6934B"/>
<stop offset="0.855678" stop-color="#FFE1CB"/>
<stop offset="1" stop-color="white"/>
</linearGradient>
</defs>
</svg>
