<svg width="54" height="52" viewBox="0 0 54 52" fill="none" xmlns="http://www.w3.org/2000/svg">
<g id="Hamburguer">
<g id="first_line">
<path id="Vector" d="M52.312 45.5001H18.562C17.6304 45.5001 16.8745 46.9562 16.8745 48.7501C16.8745 50.5441 17.6306 52 18.562 52H52.312C53.2435 52 53.9994 50.5439 53.9994 48.7501C53.9996 46.956 53.2435 45.5001 52.312 45.5001Z" fill="white"/>
</g>
<g id="second_line">
<path id="Vector_2" d="M52.3125 22.75H1.68746C0.755921 22.75 0 24.2061 0 25.9999C0 27.7938 0.756061 29.2499 1.68746 29.2499H52.3125C53.2441 29.2499 54 27.7938 54 25.9999C54 24.2061 53.2441 22.75 52.3125 22.75Z" fill="white"/>
</g>
<g id="third_line">
<path id="Vector_3" d="M1.68746 6.49989H52.3125C53.2441 6.49989 54 5.04376 54 3.24994C54 1.45586 53.2439 0 52.3125 0H1.68746C0.755921 0 0 1.45613 0 3.24994C0 5.04376 0.756061 6.49989 1.68746 6.49989Z" fill="white"/>
</g>
</g>
</svg>
